<svg width="34" height="34" viewBox="0 0 34 34" fill="none" xmlns="http://www.w3.org/2000/svg">
<path d="M33.7653 0.234556C33.6081 0.0773632 33.3935 -0.00783979 33.1704 0.000568394C32.9893 0.00705471 28.6783 0.180343 23.5537 1.99163C19.4473 3.44152 16.0245 5.51738 13.3804 8.16156C12.7879 8.75405 12.2114 9.38235 11.6597 10.0351C9.04534 8.49612 6.95034 8.97867 5.62593 9.68744C2.57648 11.3194 0.688965 15.7506 0.688965 18.9201C0.689205 19.2439 0.884355 19.536 1.18353 19.6599C1.28258 19.701 1.38668 19.7209 1.48982 19.7209C1.69827 19.7209 1.90303 19.6395 2.05622 19.4863C3.66442 17.8781 5.64803 17.9787 6.29602 18.0639L6.57646 18.3444C6.02456 19.6576 5.57997 20.9635 5.25389 22.2337C5.13618 22.6933 5.17589 23.1797 5.35086 23.6246C4.57987 23.9799 3.83603 24.5016 3.18836 25.1493C1.12707 27.2107 0.708504 32.2343 0.691688 32.4471C0.67327 32.6807 0.757992 32.9107 0.923673 33.0764C1.07446 33.2271 1.27842 33.3109 1.48982 33.3109C1.51081 33.3109 1.53187 33.3101 1.55293 33.3084C1.76577 33.2917 6.78955 32.8731 8.85083 30.8119C9.49826 30.1644 10.0199 29.4207 10.3752 28.6498C10.8462 28.835 11.331 28.8579 11.767 28.7462C13.0365 28.4202 14.3423 27.9757 15.6557 27.4238L15.9361 27.7042C16.0213 28.3523 16.1218 30.3359 14.5137 31.9439C14.2848 32.1729 14.2162 32.5174 14.3402 32.8165C14.4641 33.1158 14.756 33.3108 15.0799 33.3108C18.2494 33.3108 22.6805 31.4233 24.3125 28.3739C25.0213 27.0496 25.5038 24.9546 23.9649 22.3402C24.6173 21.7887 25.2457 21.2122 25.8384 20.6194C28.4826 17.9753 30.5584 14.5525 32.0083 10.4464C33.8196 5.32159 33.9928 1.01051 33.9993 0.829536C34.0073 0.607319 33.9225 0.391829 33.7653 0.234556ZM2.47935 17.1977C2.97679 14.7903 4.42164 12.1486 6.38195 11.0995C7.69194 10.3985 9.12382 10.4672 10.6463 11.3005C9.34924 13.0064 8.22166 14.8441 7.28179 16.7848C7.26985 16.7775 7.12571 16.5962 6.85793 16.5359C6.74782 16.511 4.62904 16.0552 2.47935 17.1977ZM7.71837 29.6793C6.6173 30.7804 4.03438 31.3611 2.40183 31.5982C2.63902 29.9656 3.21983 27.3828 4.32082 26.2818C4.93742 25.6652 5.65236 25.1977 6.37098 24.9344L9.06576 27.6292C8.80247 28.3478 8.33505 29.0627 7.71837 29.6793ZM11.3691 27.1947C11.1374 27.2541 10.869 27.1669 10.6694 26.9677C9.63344 25.9317 9.22816 25.5265 9.101 25.3994C8.86781 25.1662 8.29597 24.5944 7.0329 23.3312C6.83319 23.1311 6.74606 22.8628 6.80524 22.6314C7.06173 21.6325 7.39718 20.6077 7.80509 19.573L14.4271 26.195C13.3923 26.603 12.3676 26.9384 11.3691 27.1947ZM22.9007 27.6182C21.8515 29.5784 19.2099 31.0233 16.8026 31.5207C17.5701 30.0763 17.7393 28.2377 17.4589 27.1227C17.3938 26.8638 17.2248 26.7336 17.2154 26.7183C19.1559 25.7784 20.9936 24.6508 22.6996 23.3538C23.533 24.8764 23.6016 26.3084 22.9007 27.6182ZM24.7061 19.487C23.9845 20.2085 23.2075 20.9056 22.3967 21.5588C20.4474 23.1283 18.302 24.4577 16.013 25.5161L8.48408 17.9873C9.54239 15.6982 10.8718 13.5527 12.4412 11.6037C13.095 10.7923 13.792 10.0152 14.5132 9.29402C16.8855 6.92163 19.9472 5.03355 23.6158 3.67447L30.3257 10.3844C28.9667 14.0528 27.0787 17.1145 24.7061 19.487ZM30.9018 8.69544L25.3047 3.09831C28.3541 2.15114 31.007 1.79648 32.3312 1.66899C32.2037 2.9934 31.8489 5.64631 30.9018 8.69544Z" fill="#0073C6"/>
</svg>
