<svg width="33" height="30" viewBox="0 0 33 30" fill="none" xmlns="http://www.w3.org/2000/svg">
<path d="M1.91665 12.1249H6.29165V29.6249H1.91665C1.52987 29.6249 1.15894 29.4713 0.885449 29.1978C0.611958 28.9243 0.458313 28.5534 0.458313 28.1666V13.5833C0.458313 13.1965 0.611958 12.8255 0.885449 12.5521C1.15894 12.2786 1.52987 12.1249 1.91665 12.1249ZM9.63561 10.2393L18.9689 0.90596C19.093 0.781556 19.2578 0.70612 19.433 0.693527C19.6082 0.680934 19.7821 0.73203 19.9227 0.837418L21.1666 1.77075C21.5121 2.03011 21.7731 2.38595 21.9166 2.79342C22.0601 3.20088 22.0798 3.64171 21.9731 4.06033L20.2916 10.6666H29.625C30.3985 10.6666 31.1404 10.9739 31.6874 11.5209C32.2344 12.0678 32.5416 12.8097 32.5416 13.5833V16.6516C32.542 17.0327 32.4677 17.4103 32.3229 17.7628L27.8094 28.7222C27.6993 28.9894 27.5122 29.2179 27.2721 29.3786C27.0319 29.5393 26.7494 29.625 26.4604 29.6249H10.6666C10.2799 29.6249 9.90894 29.4713 9.63545 29.1978C9.36196 28.9243 9.20831 28.5534 9.20831 28.1666V11.2703C9.2084 10.8836 9.3621 10.5127 9.63561 10.2393Z" fill="white"/>
</svg>
